<?xml version="1.0" encoding="utf-8"?>
<!-- Generator: Adobe Illustrator 26.0.3, SVG Export Plug-In . SVG Version: 6.00 Build 0)  -->
<svg version="1.1" id="Layer_1" xmlns="http://www.w3.org/2000/svg" xmlns:xlink="http://www.w3.org/1999/xlink" x="0px" y="0px"
	 width="22px" height="22px" viewBox="0 0 22 22" style="enable-background:new 0 0 22 22;" xml:space="preserve">
<style type="text/css">
	.st0{fill:#A7A59F;}
	.st1{fill-rule:evenodd;clip-rule:evenodd;fill:#A7A59F;}
</style>
<path class="st0" d="M10.7,1.9h7.7c1,0,1.8,0.4,2.5,1c0.6,0.6,1,1.5,1,2.5v11.2c0,1-0.4,1.8-1,2.5c-0.6,0.6-1.5,1-2.5,1h-1.8
	c0.3-0.3,0.4-0.6,0.6-1h1.3c0.7,0,1.3-0.3,1.8-0.7c0.5-0.5,0.7-1.1,0.7-1.8V5.4c0-0.7-0.3-1.3-0.7-1.8c-0.5-0.5-1.1-0.7-1.8-0.7H9.7
	C9.9,2.5,10.2,2.1,10.7,1.9L10.7,1.9z M14.3,9.5l5.2-4.6h-4.3L14.3,9.5z M10.8,20.1H3.6c-1,0-1.8-0.4-2.5-1c-0.6-0.6-1-1.5-1-2.5
	V5.4c0-1,0.4-1.8,1-2.5s1.5-1,2.5-1h1.2c-0.3,0.3-0.4,0.6-0.6,1H3.6c-0.7,0-1.3,0.3-1.8,0.7C1.4,4.1,1.1,4.7,1.1,5.4v11.2
	c0,0.7,0.3,1.3,0.7,1.8c0.5,0.5,1.1,0.7,1.8,0.7h8.1C11.5,19.5,11.2,19.9,10.8,20.1L10.8,20.1z"/>
<path class="st1" d="M6.9,1.4h4.3c-1,0-1.9,0.8-2.1,1.7l0,0.1L6.5,15.5H2.2L4.8,3.2C5,2.2,5.9,1.4,6.9,1.4z M16.7,18.8
	c-0.2,1-1.1,1.7-2.1,1.7h-4.3c1,0,1.9-0.8,2.1-1.7l1.6-7.8l5.2-4.6C19.2,6.5,16.7,18.8,16.7,18.8z M7.1,18.1c1.4,0,2.8,0,4.3,0
	c1-4.7,2-9.4,3-14.1c-1.4,0-2.8,0-4.3,0C9.1,8.6,8.1,13.4,7.1,18.1z"/>
</svg>
